<svg version="1.1" viewBox="0.0 0.0 780.0 100.0" fill="none" stroke="none" stroke-linecap="square" stroke-miterlimit="10" xmlns:xlink="http://www.w3.org/1999/xlink" xmlns="http://www.w3.org/2000/svg"><clipPath id="p.0"><path d="m0 0l780.0 0l0 100.0l-780.0 0l0 -100.0z" clip-rule="nonzero"/></clipPath><g clip-path="url(#p.0)"><path fill="#000000" fill-opacity="0.0" d="m0 0l780.0 0l0 100.0l-780.0 0z" fill-rule="evenodd"/><path fill="#000000" fill-opacity="0.0" d="m18.152231 36.892387l26.929132 0.5984268" fill-rule="evenodd"/><path stroke="#cccccc" stroke-width="4.0" stroke-linejoin="round" stroke-linecap="butt" d="m18.152231 36.892387l26.929132 0.5984268" fill-rule="evenodd"/><path fill="#000000" fill-opacity="0.0" d="m19.325459 48.603676l25.165356 -0.5984268" fill-rule="evenodd"/><path stroke="#cccccc" stroke-width="4.0" stroke-linejoin="round" stroke-linecap="butt" d="m19.325459 48.603676l25.165356 -0.5984268" fill-rule="evenodd"/><path fill="#000000" fill-opacity="0.0" d="m18.737534 59.72966l26.929134 0" fill-rule="evenodd"/><path stroke="#cccccc" stroke-width="4.0" stroke-linejoin="round" stroke-linecap="butt" d="m18.737534 59.72966l26.929134 0" fill-rule="evenodd"/><path fill="#000000" fill-opacity="0.0" d="m81.396324 17.506561l94.26772 -0.5984249" fill-rule="evenodd"/><path stroke="#cccccc" stroke-width="4.0" stroke-linejoin="round" stroke-linecap="butt" d="m81.396324 17.506561l94.26772 -0.5984249" fill-rule="evenodd"/><path fill="#000000" fill-opacity="0.0" d="m80.22572 40.343834l390.01575 -0.5984268" fill-rule="evenodd"/><path stroke="#cccccc" stroke-width="4.0" stroke-linejoin="round" stroke-linecap="butt" d="m80.22572 40.343834l390.01575 -0.5984268" fill-rule="evenodd"/><path fill="#000000" fill-opacity="0.0" d="m80.22572 60.254593l486.04724 -0.5984268" fill-rule="evenodd"/><path stroke="#cccccc" stroke-width="4.0" stroke-linejoin="round" stroke-linecap="butt" d="m80.22572 60.254593l486.04724 -0.5984268" fill-rule="evenodd"/><path fill="#000000" fill-opacity="0.0" d="m79.64042 83.091866l548.6929 -1.1653595" fill-rule="evenodd"/><path stroke="#cccccc" stroke-width="4.0" stroke-linejoin="round" stroke-linecap="butt" d="m79.64042 83.091866l548.6929 -1.1653595" fill-rule="evenodd"/><path fill="#000000" fill-opacity="0.0" d="m736.1373 69.354866c-8.469177 0 -19.26947 -4.303253 -21.946472 -11.556133c-2.930725 -7.940384 2.9728394 -20.401146 11.888245 -22.699738c7.8546143 -2.025074 19.723633 -1.0384369 23.774475 5.3646164c6.024048 9.522087 -2.482544 30.12881 -14.630249 30.12881" fill-rule="evenodd"/><path stroke="#cccccc" stroke-width="4.0" stroke-linejoin="round" stroke-linecap="butt" d="m736.1373 69.354866c-8.469177 0 -19.26947 -4.303253 -21.946472 -11.556133c-2.930725 -7.940384 2.9728394 -20.401146 11.888245 -22.699738c7.8546143 -2.025074 19.723633 -1.0384369 23.774475 5.3646164c6.024048 9.522087 -2.482544 30.12881 -14.630249 30.12881" fill-rule="evenodd"/></g></svg>